<svg width="161" height="41" viewBox="0 0 161 41" fill="none" xmlns="http://www.w3.org/2000/svg">
<g clip-path="url(#clip0_34_114)">
<path d="M36.9986 2.00292H59.5446V6.89051H42.0964V19.0307H57.3898V23.8657H42.0964V40H36.9986V2.00292ZM61.6398 2.00292H66.7376V35.1124H86.0252V40H61.6398V2.00292ZM90.1282 2.00292H95.226V40H90.1282V2.00292ZM132.734 41.2088L103.356 11.4102L104.827 11.7781L104.932 40H99.8344V0.846712H100.097L129.16 30.7504L127.951 30.4876L127.846 2.00292H132.891V41.2088H132.734ZM134.726 2.00292H159.952V6.89051H149.757V40H144.659V6.89051H134.726V2.00292Z" fill="white"/>
<rect x="2.62774" y="3.94161" width="26.2774" height="32.8467" stroke="white" stroke-width="5.25547"/>
<ellipse cx="9.85404" cy="30.5474" rx="7.88321" ry="8.86861" fill="white"/>
<circle cx="9.19711" cy="17.7372" r="1.31387" fill="white"/>
<circle cx="17.0803" cy="15.1095" r="3.94161" fill="white"/>
<circle cx="20.365" cy="23.6496" r="2.62774" fill="white"/>
</g>
<defs>
<clipPath id="clip0_34_114">
<rect width="160.292" height="40.7299" fill="white"/>
</clipPath>
</defs>
</svg>
