<?xml version="1.0" encoding="iso-8859-1"?>
<!-- Uploaded to: SVG Repo, www.svgrepo.com, Generator: SVG Repo Mixer Tools -->
<svg fill="#000000" height="800px" width="800px" version="1.1" id="Layer_1" xmlns="http://www.w3.org/2000/svg" xmlns:xlink="http://www.w3.org/1999/xlink" 
	 viewBox="0 0 510.409 510.409" xml:space="preserve">
<g transform="translate(0 1)">
	<g>
		<path d="M386.618,260.236c4.267-14.507-0.853-30.72-12.8-40.107c-10.24-7.68-23.04-10.24-34.987-6.827
			c-0.853,0.853-0.853,0.853-1.707,0.853c0-15.36-10.24-29.867-25.6-34.987l-1.707-0.853c-10.319-3.589-21.107-2.219-30.014,2.735
			l-20.946-64.234l8.293-51.14c3.413-11.947,0.853-23.893-5.973-32.427c-7.68-9.387-18.773-14.507-30.72-14.507
			c-1.637,0-3.228,0.104-4.781,0.291C214.814,1.11,200.459-1.662,190.351-0.884c-23.04,2.56-35.84,17.067-34.133,41.813
			c0,0.853,0,0.853,0,1.707l21.212,85.696l-36.009,179.444c-24.578,18.335-27.016,37.647-27.016,64.247v0.853
			c0,35.84,24.747,63.147,34.133,71.68v30.72c0,18.773,15.36,34.133,34.133,34.133h154.453c18.773,0,33.28-14.507,33.28-34.133
			v-31.573c24.747-33.28,25.6-45.227,25.6-104.96C396.005,307.169,387.471,271.329,386.618,260.236z M282.511,284.129
			c0.949-2.254,1.608-4.609,2.019-7.02c1.592-8.345,0.345-16.598-3.203-23.549c-2.998-7.059-7.64-13.453-13.323-18.071l5.122-14.9
			c1.393-3.217,2.59-6.656,3.547-10.318l0.718-2.089c4.267-11.093,15.36-16.213,26.453-12.8l1.707,0.853
			c3.825,1.275,7.173,3.505,9.689,6.685c3.316,5.118,4.25,11.585,2.257,18.062l-5.973,17.067c-0.255,0.766-0.404,1.51-0.477,2.232
			l-29.122,84.131c-5.221,7.944-14.683,11.273-24.161,8.357l-1.707-0.853c-0.853,0-2.56-0.853-3.413-1.707
			C267.151,311.436,278.245,295.222,282.511,284.129z M297.018,332.769l0.26-0.75c1.217-1.923,2.279-3.952,3.154-6.076l30.46-87.573
			c2.091-2.591,4.858-4.753,7.94-6.294c1.27-0.847,2.751-1.482,4.337-1.909c3.799-0.78,7.586-0.513,11.214,0.652
			c0.217,0.127,0.432,0.251,0.662,0.404c5.12,1.707,9.387,5.973,11.947,11.093s2.56,11.093,0.853,16.213l-30.72,88.747
			c-1.707,5.12-5.973,9.387-11.093,11.947s-11.093,2.56-16.213,0.853s-9.387-5.973-11.947-11.093
			C295.311,343.862,295.311,337.889,297.018,332.769z M266.298,192.822c-2.56,2.56-4.267,5.973-5.12,9.387v0.853
			c-2.553,12.126-8.924,21.386-15.544,28.141c-1.98,1.572-4.036,3.053-6.043,4.431l13.501-83.257L266.298,192.822z M173.285,39.222
			c-0.853-14.507,4.267-21.333,20.48-23.04c4.232-0.846,10.981-0.004,16.919,8.335c-9.055,6.067-15.466,16.702-18.625,30.918
			l-6.276,31.276L173.285,39.222z M209.125,58.849c1.707-6.827,5.973-23.04,21.333-23.04c6.827,0,12.8,3.413,17.067,8.533
			c3.413,4.267,4.267,11.093,2.56,17.92l-10.241,62.301l-20.802,124.811c-12.048,8.621-35.703,26.364-56.85,42.435L209.125,58.849z
			 M355.045,436.022c-1.707,1.707-1.707,3.413-1.707,5.973v33.28c0,9.387-6.827,17.067-16.213,17.067H182.671
			c-9.387,0-17.067-7.68-17.067-17.067v-34.133c0-2.56-0.853-5.12-3.413-6.827c0,0-29.867-25.6-30.72-60.587
			c0-26.494,1.609-38.529,19.631-52.472c0.932-0.297,1.807-0.727,2.556-1.288c27.307-20.48,63.147-48.64,77.653-58.027
			c1.071-0.67,2.121-1.289,3.16-1.884c1.208-0.605,2.635-1.357,4.237-2.274c10.265-5.065,18.629-5.976,24.176-1.816
			c5.12,4.267,6.827,13.653,4.267,21.333c0,0,0,0,0,0c-3.648,8.755-12.921,23.129-25.663,39.378
			c-21.317,26.863-48.941,54.645-60.524,59.609c-4.267,1.707-5.973,6.827-4.267,11.093c0.853,3.413,4.267,5.12,7.68,5.12
			c0.853,0,1.707,0,3.413-0.853c12.418-5.322,34.054-25.857,53.77-48.666c2.949,2.138,6.161,3.768,9.376,5.146l1.707,0.853
			c3.413,0.853,7.68,1.707,11.947,1.707c5.162,0,10.226-1.161,14.904-3.248c0.638,3.124,1.65,6.216,3.016,9.221
			c5.12,9.387,12.8,16.213,22.187,19.627c4.267,0.853,8.533,1.707,12.8,1.707c5.973,0,11.947-1.707,16.213-3.413
			c9.387-5.12,16.213-12.8,19.627-22.187l20.787-60.052c2.508,13.869,4.813,30.842,4.813,46.399
			C378.938,398.476,378.085,405.302,355.045,436.022z"/>
	</g>
</g>
</svg>